<?xml version="1.0" standalone="no"?>
<!DOCTYPE svg PUBLIC "-//W3C//DTD SVG 20010904//EN"
 "http://www.w3.org/TR/2001/REC-SVG-20010904/DTD/svg10.dtd">
<svg version="1.0" xmlns="http://www.w3.org/2000/svg"
 width="3000.000000pt" height="3000.000000pt" viewBox="0 0 3000.000000 3000.000000"
 preserveAspectRatio="xMidYMid meet">

<g transform="translate(0.000000,3000.000000) scale(0.100000,-0.100000)"
fill="#000000" stroke="none">
<path d="M3652 25103 l3 -278 818 -3 817 -2 -2 -9823 -3 -9822 -817 -3 -818
-2 0 -280 0 -280 2020 0 2020 0 0 280 0 280 -817 2 -818 3 -3 9318 -2 9317 65
0 c36 0 65 -3 65 -6 0 -5 5174 -19032 5206 -19141 l15 -53 1853 0 1854 0 11
47 c8 39 4417 18970 4436 19051 5 21 10 23 63 20 l57 -3 3 -9277 2 -9278 -815
0 -815 0 0 -280 0 -280 4525 0 4525 0 0 280 0 280 -815 0 -815 0 0 9825 0
9825 815 0 815 0 0 280 0 280 -3963 0 -3962 0 -1769 -7592 c-973 -4176 -1775
-7613 -1781 -7638 -6 -26 -13 -38 -17 -30 -3 8 -891 3445 -1974 7638 l-1968
7622 -4008 0 -4008 0 2 -277z"/>
</g>
</svg>
